<svg xmlns="http://www.w3.org/2000/svg" width="1200" height="720" viewBox="0 0 1200 720" role="img" aria-labelledby="title desc">
  <title id="title">n8n Document Intake Approval Flow</title>
  <desc id="desc">Visual flow showing how document intake is classified, validated and routed to automatic or human approval.</desc>
  <rect width="1200" height="720" fill="#f4efe5"/>
  <rect x="48" y="42" width="1104" height="636" rx="28" fill="#14324a"/>
  <rect x="48" y="42" width="1104" height="636" rx="28" fill="none" stroke="#c8a46e" stroke-width="2"/>
  <text x="90" y="118" fill="#f6f0e6" font-family="Georgia, 'Times New Roman', serif" font-size="42" font-weight="700">15 n8n Document Intake Approval</text>
  <text x="90" y="158" fill="#d6dfeb" font-family="Arial, Helvetica, sans-serif" font-size="22">Controlled document automation with validation and explicit human-in-the-loop routing.</text>
  <rect x="92" y="220" width="220" height="150" rx="22" fill="#f7f2e9"/>
  <text x="126" y="270" fill="#14324a" font-family="Arial, Helvetica, sans-serif" font-size="28" font-weight="700">Inbound</text>
  <text x="126" y="312" fill="#14324a" font-family="Arial, Helvetica, sans-serif" font-size="20">Invoices</text>
  <text x="126" y="340" fill="#14324a" font-family="Arial, Helvetica, sans-serif" font-size="20">Onboarding forms</text>
  <text x="126" y="368" fill="#14324a" font-family="Arial, Helvetica, sans-serif" font-size="20">Contract changes</text>
  <rect x="356" y="220" width="220" height="150" rx="22" fill="#f7f2e9"/>
  <text x="384" y="270" fill="#14324a" font-family="Arial, Helvetica, sans-serif" font-size="28" font-weight="700">Parse</text>
  <text x="384" y="312" fill="#14324a" font-family="Arial, Helvetica, sans-serif" font-size="20">Classification</text>
  <text x="384" y="340" fill="#14324a" font-family="Arial, Helvetica, sans-serif" font-size="20">Field extraction</text>
  <text x="384" y="368" fill="#14324a" font-family="Arial, Helvetica, sans-serif" font-size="20">Completeness check</text>
  <rect x="620" y="220" width="220" height="150" rx="22" fill="#f7f2e9"/>
  <text x="654" y="270" fill="#14324a" font-family="Arial, Helvetica, sans-serif" font-size="28" font-weight="700">Validate</text>
  <text x="654" y="312" fill="#14324a" font-family="Arial, Helvetica, sans-serif" font-size="20">Rules</text>
  <text x="654" y="340" fill="#14324a" font-family="Arial, Helvetica, sans-serif" font-size="20">Risk gate</text>
  <text x="654" y="368" fill="#14324a" font-family="Arial, Helvetica, sans-serif" font-size="20">Approval need</text>
  <rect x="884" y="220" width="220" height="150" rx="22" fill="#f7f2e9"/>
  <text x="916" y="270" fill="#14324a" font-family="Arial, Helvetica, sans-serif" font-size="28" font-weight="700">Route</text>
  <text x="916" y="312" fill="#14324a" font-family="Arial, Helvetica, sans-serif" font-size="20">Auto approve</text>
  <text x="916" y="340" fill="#14324a" font-family="Arial, Helvetica, sans-serif" font-size="20">Ops review</text>
  <text x="916" y="368" fill="#14324a" font-family="Arial, Helvetica, sans-serif" font-size="20">Legal review</text>
  <path d="M312 294 H356" stroke="#c8a46e" stroke-width="6" stroke-linecap="round"/>
  <path d="M576 294 H620" stroke="#c8a46e" stroke-width="6" stroke-linecap="round"/>
  <path d="M840 294 H884" stroke="#c8a46e" stroke-width="6" stroke-linecap="round"/>
  <polygon points="348,282 368,294 348,306" fill="#c8a46e"/>
  <polygon points="612,282 632,294 612,306" fill="#c8a46e"/>
  <polygon points="876,282 896,294 876,306" fill="#c8a46e"/>
  <text x="92" y="452" fill="#f2d29b" font-family="Georgia, 'Times New Roman', serif" font-size="24">Operational deliverables</text>
  <rect x="92" y="486" width="298" height="46" rx="23" fill="#f7f2e9"/>
  <text x="124" y="515" fill="#14324a" font-family="Arial, Helvetica, sans-serif" font-size="20" font-weight="700">intake_approval_report.md</text>
  <rect x="408" y="486" width="248" height="46" rx="23" fill="#f7f2e9"/>
  <text x="440" y="515" fill="#14324a" font-family="Arial, Helvetica, sans-serif" font-size="20" font-weight="700">approval_queue.csv</text>
  <rect x="674" y="486" width="210" height="46" rx="23" fill="#f7f2e9"/>
  <text x="706" y="515" fill="#14324a" font-family="Arial, Helvetica, sans-serif" font-size="20" font-weight="700">workflow.json</text>
  <text x="92" y="606" fill="#f6f0e6" font-family="Arial, Helvetica, sans-serif" font-size="22">Value signal: automation with approval discipline and visible control points.</text>
</svg>
