<svg xmlns="http://www.w3.org/2000/svg" width="1200" height="720" viewBox="0 0 1200 720" role="img" aria-labelledby="title desc">
  <title id="title">Cloud Data Platform Governance Flow</title>
  <desc id="desc">Visual flow showing how datasets are scored, gated and released for trusted BI and AI use.</desc>
  <rect width="1200" height="720" fill="#f4efe5"/>
  <rect x="48" y="42" width="1104" height="636" rx="28" fill="#14324a"/>
  <rect x="48" y="42" width="1104" height="636" rx="28" fill="none" stroke="#c8a46e" stroke-width="2"/>
  <text x="90" y="118" fill="#f6f0e6" font-family="Georgia, 'Times New Roman', serif" font-size="42" font-weight="700">16 Cloud Data Platform Governance</text>
  <text x="90" y="158" fill="#d6dfeb" font-family="Arial, Helvetica, sans-serif" font-size="22">Trusted data products for BI, analytics and AI with explicit release gates.</text>
  <rect x="92" y="220" width="220" height="150" rx="22" fill="#f7f2e9"/>
  <text x="124" y="270" fill="#14324a" font-family="Arial, Helvetica, sans-serif" font-size="28" font-weight="700">Products</text>
  <text x="124" y="312" fill="#14324a" font-family="Arial, Helvetica, sans-serif" font-size="20">CRM</text>
  <text x="124" y="340" fill="#14324a" font-family="Arial, Helvetica, sans-serif" font-size="20">Claims</text>
  <text x="124" y="368" fill="#14324a" font-family="Arial, Helvetica, sans-serif" font-size="20">Treasury</text>
  <rect x="356" y="220" width="220" height="150" rx="22" fill="#f7f2e9"/>
  <text x="386" y="270" fill="#14324a" font-family="Arial, Helvetica, sans-serif" font-size="28" font-weight="700">Check</text>
  <text x="386" y="312" fill="#14324a" font-family="Arial, Helvetica, sans-serif" font-size="20">Freshness</text>
  <text x="386" y="340" fill="#14324a" font-family="Arial, Helvetica, sans-serif" font-size="20">Contracts</text>
  <text x="386" y="368" fill="#14324a" font-family="Arial, Helvetica, sans-serif" font-size="20">Lineage</text>
  <rect x="620" y="220" width="220" height="150" rx="22" fill="#f7f2e9"/>
  <text x="650" y="270" fill="#14324a" font-family="Arial, Helvetica, sans-serif" font-size="28" font-weight="700">Gate</text>
  <text x="650" y="312" fill="#14324a" font-family="Arial, Helvetica, sans-serif" font-size="20">Release hold</text>
  <text x="650" y="340" fill="#14324a" font-family="Arial, Helvetica, sans-serif" font-size="20">Named actions</text>
  <text x="650" y="368" fill="#14324a" font-family="Arial, Helvetica, sans-serif" font-size="20">Ownership</text>
  <rect x="884" y="220" width="220" height="150" rx="22" fill="#f7f2e9"/>
  <text x="916" y="270" fill="#14324a" font-family="Arial, Helvetica, sans-serif" font-size="28" font-weight="700">Use</text>
  <text x="916" y="312" fill="#14324a" font-family="Arial, Helvetica, sans-serif" font-size="20">Power BI</text>
  <text x="916" y="340" fill="#14324a" font-family="Arial, Helvetica, sans-serif" font-size="20">Analytics</text>
  <text x="916" y="368" fill="#14324a" font-family="Arial, Helvetica, sans-serif" font-size="20">AI workflows</text>
  <path d="M312 294 H356" stroke="#c8a46e" stroke-width="6" stroke-linecap="round"/>
  <path d="M576 294 H620" stroke="#c8a46e" stroke-width="6" stroke-linecap="round"/>
  <path d="M840 294 H884" stroke="#c8a46e" stroke-width="6" stroke-linecap="round"/>
  <polygon points="348,282 368,294 348,306" fill="#c8a46e"/>
  <polygon points="612,282 632,294 612,306" fill="#c8a46e"/>
  <polygon points="876,282 896,294 876,306" fill="#c8a46e"/>
  <text x="92" y="452" fill="#f2d29b" font-family="Georgia, 'Times New Roman', serif" font-size="24">Operational deliverables</text>
  <rect x="92" y="486" width="284" height="46" rx="23" fill="#f7f2e9"/>
  <text x="124" y="515" fill="#14324a" font-family="Arial, Helvetica, sans-serif" font-size="20" font-weight="700">governance_report.md</text>
  <rect x="394" y="486" width="248" height="46" rx="23" fill="#f7f2e9"/>
  <text x="426" y="515" fill="#14324a" font-family="Arial, Helvetica, sans-serif" font-size="20" font-weight="700">dataset_health.csv</text>
  <rect x="660" y="486" width="320" height="46" rx="23" fill="#f7f2e9"/>
  <text x="692" y="515" fill="#14324a" font-family="Arial, Helvetica, sans-serif" font-size="20" font-weight="700">pipeline_release_checklist.md</text>
  <text x="92" y="606" fill="#f6f0e6" font-family="Arial, Helvetica, sans-serif" font-size="22">Value signal: platform discipline that makes downstream BI and AI safer to trust.</text>
</svg>
